<?xml version="1.0" standalone="no"?>
<!DOCTYPE svg PUBLIC "-//W3C//DTD SVG 20010904//EN"
 "http://www.w3.org/TR/2001/REC-SVG-20010904/DTD/svg10.dtd">
<svg version="1.0" xmlns="http://www.w3.org/2000/svg"
 width="1197.000000pt" height="1197.000000pt" viewBox="0 0 1197.000000 1197.000000"
 preserveAspectRatio="xMidYMid meet">
<metadata>
Created by potrace 1.11, written by Peter Selinger 2001-2013
</metadata>
<g transform="translate(0.000000,1197.000000) scale(0.100000,-0.100000)"
fill="#000000" stroke="none">
<path d="M690 11958 c-19 -5 -53 -14 -75 -20 -47 -13 -209 -89 -213 -100 -2
-4 -10 -8 -18 -8 -8 0 -14 -4 -14 -8 0 -4 -12 -15 -27 -24 -36 -21 -139 -121
-179 -173 -38 -49 -116 -204 -133 -265 -7 -25 -17 -61 -22 -80 -12 -42 -6
-10563 6 -10627 4 -24 10 -43 14 -43 4 0 13 -21 21 -48 7 -26 22 -63 33 -82
29 -54 60 -104 72 -117 5 -6 21 -26 35 -44 32 -42 96 -106 139 -139 66 -50
216 -130 246 -130 7 0 16 -4 19 -9 6 -9 16 -11 136 -31 102 -16 10555 -9
10572 8 6 6 22 12 33 12 12 0 40 9 63 20 22 11 48 20 56 20 8 0 18 5 21 10 3
6 13 10 21 10 8 0 24 8 35 18 10 11 32 25 47 33 15 8 32 19 38 24 7 6 31 26
55 45 121 98 224 258 272 423 l22 72 3 5245 c2 3619 -1 5264 -8 5307 -55 323
-303 596 -620 683 -25 7 -58 16 -74 21 -41 13 -10531 10 -10576 -3z m6020
-467 c509 -53 893 -133 1325 -275 1016 -336 1910 -958 2582 -1798 144 -180
383 -522 372 -532 -4 -4 -2642 -1676 -2666 -1689 -7 -5 -34 33 -74 105 -237
426 -565 743 -974 943 -368 179 -729 255 -1165 242 -362 -10 -654 -82 -963
-237 -641 -322 -1094 -970 -1226 -1755 -43 -257 -51 -566 -21 -835 67 -591
338 -1161 727 -1530 381 -360 862 -561 1411 -589 718 -36 1320 188 1777 660
208 214 366 456 491 748 17 42 36 75 42 74 12 -3 2814 -1504 2826 -1514 15
-14 -160 -327 -323 -574 -334 -509 -785 -990 -1265 -1348 -838 -624 -1835
-981 -2956 -1056 -599 -41 -1147 -6 -1695 105 -684 140 -1327 403 -1880 769
-761 505 -1361 1189 -1770 2020 -326 662 -513 1364 -571 2140 -20 265 -14 781
11 1025 161 1583 920 2959 2130 3861 825 615 1776 959 2895 1049 139 11 827 4
960 -9z"/>
</g>
</svg>
