<?xml version="1.0" standalone="no"?>
<!DOCTYPE svg PUBLIC "-//W3C//DTD SVG 20010904//EN"
 "http://www.w3.org/TR/2001/REC-SVG-20010904/DTD/svg10.dtd">
<svg version="1.0" xmlns="http://www.w3.org/2000/svg"
 width="500.000000pt" height="500.000000pt" viewBox="0 0 500.000000 500.000000"
 preserveAspectRatio="xMidYMid meet">
<metadata>
Created by potrace 1.11, written by Peter Selinger 2001-2013
</metadata>
<g transform="translate(0.000000,500.000000) scale(0.100000,-0.100000)"
fill="#000000" stroke="none">
<path d="M2204 4690 c-375 -57 -707 -195 -1014 -423 -122 -91 -346 -315 -437
-437 -298 -402 -443 -841 -443 -1340 0 -499 145 -938 443 -1340 91 -122 315
-346 437 -437 402 -298 841 -443 1340 -443 499 0 938 145 1340 443 122 91 346
315 437 437 298 402 443 841 443 1340 0 499 -145 938 -443 1340 -91 122 -315
346 -437 437 -311 230 -642 367 -1023 424 -175 25 -470 25 -643 -1z m-72
-1045 c152 -32 270 -97 388 -215 76 -76 132 -152 120 -163 -17 -14 -310 -217
-314 -217 -2 0 -15 19 -29 43 -33 56 -102 119 -164 150 -75 38 -144 50 -254
45 -86 -4 -107 -9 -166 -38 -128 -63 -222 -188 -259 -346 -24 -101 -15 -276
18 -365 67 -181 189 -296 349 -330 72 -16 190 -6 266 22 102 37 156 85 228
202 9 15 33 3 182 -85 l172 -102 -27 -50 c-37 -68 -153 -182 -238 -234 -142
-85 -316 -132 -491 -133 -166 0 -293 32 -428 109 -286 163 -474 491 -475 827
0 223 99 470 252 625 194 197 424 287 703 274 55 -2 130 -11 167 -19z m1868
-890 l0 -185 -275 0 -275 0 0 -725 0 -725 -210 0 -210 0 -2 723 -3 722 -277 3
-278 2 0 185 0 185 765 0 765 0 0 -185z"/>
</g>
</svg>
